# xmcd
#
# Track frame offsets: 
#        187
#        16097
#        35252
#        47607
#        67915
#        85990
#        110112
#        122550
#        146980
#        165270
#        183840
#        192685
#        214335
#        235282
#        259245
#        265607
#        289047
#
# Disc length: 4649 seconds
#
# Revision: 1
# Processed by: cddbd v1.5PL3 Copyright (c) Steve Scherf et al.
# Submitted via: ExactAudioCopy v0.95a3
#
DISCID=f3122711
DTITLE=Sepultura - Roots
DYEAR=1996
DGENRE=Metal
TTITLE0=Roots Bloody Roots
TTITLE1=Attitude
TTITLE2=Cut Throat
TTITLE3=Ratamahatta
TTITLE4=Breed Apart
TTITLE5=Straighthate
TTITLE6=Spit
TTITLE7=Look Away
TTITLE8=Dusted
TTITLE9=Born Stubborn
TTITLE10=Jasco
TTITLE11=Itsari [Live]
TTITLE12=Ambush
TTITLE13=Endangered Species
TTITLE14=Dictatorshit
TTITLE15=Canyon Jam [Hidden Track]
TTITLE16=Canyon Jam [Hidden Track]
EXTD=YEAR: 1996 ID3G: 9
EXTT0=
EXTT1=
EXTT2=
EXTT3=
EXTT4=
EXTT5=
EXTT6=
EXTT7=
EXTT8=
EXTT9=
EXTT10=
EXTT11=
EXTT12=
EXTT13=
EXTT14=
EXTT15=
EXTT16=
PLAYORDER=
